<?xml version="1.0" encoding="utf-8"?>
<!-- Generator: Adobe Illustrator 21.1.0, SVG Export Plug-In . SVG Version: 6.00 Build 0)  -->
<svg version="1.1" id="Layer_1" xmlns="http://www.w3.org/2000/svg" xmlns:xlink="http://www.w3.org/1999/xlink" x="0px" y="0px"
	 viewBox="0 0 585 400" style="enable-background:new 0 0 585 400;" xml:space="preserve">
<style type="text/css">
	.st0{fill:#333333;}
	.st1{fill:#FFFFFF;}
	.st2{fill:#FF4072;}
</style>
<rect class="st0" width="585" height="400"/>
<g>
	<g>
		<path class="st1" d="M178.4,225.6v-51.1c0-3.5,2-5.5,5.5-5.5h13.5c16.2,0,26.9,12.2,26.9,31.1s-10.6,31.1-26.9,31.1h-13.5
			C180.5,231.1,178.4,229,178.4,225.6z M197,221.5c10,0,16.9-7.4,16.9-21.5s-6.8-21.5-16.9-21.5h-8.1v42.9h8.1V221.5z"/>
		<path class="st1" d="M239.9,225.6v-51.1c0-3.5,2-5.5,5.5-5.5h31.5c3,0,5,1.7,5,4.8s-2,4.8-5,4.8h-26.5v15.8h19.3c3,0,5,1.7,5,4.8
			s-2,4.8-5,4.8h-19.3v17.6h28.2c3,0,5,1.7,5,4.8s-2,4.8-5,4.8h-33.2C242,231.1,239.9,229,239.9,225.6z"/>
		<path class="st1" d="M299.4,225.8v-51.4c0-3.5,2-5.5,5.5-5.5h17.2c14.9,0,22.5,6.9,22.5,19.6c0,12.7-7.6,19.6-22.5,19.6h-12.2
			v17.7c0,3.1-2.2,5.2-5.2,5.2C301.5,231.1,299.4,228.9,299.4,225.8z M322.7,198.6c8.3,0,11.4-3.8,11.4-10s-3.1-10-11.4-10h-12.9
			v20.1h12.9V198.6z"/>
		<path class="st1" d="M360.9,225.6v-51.4c0-3.1,2.1-5.2,5.2-5.2s5.2,2.1,5.2,5.2v47.3H398c3,0,5,1.7,5,4.8s-2,4.8-5,4.8h-31.7
			C362.9,231.1,360.9,229,360.9,225.6z"/>
		<path class="st1" d="M411.9,200c0-18,8.6-31.9,25.1-31.9s25.1,13.9,25.1,31.9s-8.6,31.9-25.1,31.9C420.5,232,411.9,218,411.9,200z
			 M451.5,200c0-12.5-4.5-22.4-14.5-22.4s-14.5,9.8-14.5,22.4c0,12.5,4.5,22.4,14.5,22.4S451.5,212.5,451.5,200z"/>
		<path class="st1" d="M490.3,225.8v-21.3l-18-27.6c-0.6-1-0.9-2-0.9-2.8c0-2.8,2.4-5.1,5.6-5.1c1.7,0,3.6,0.8,4.9,2.8l13.7,21.8
			l13.7-21.8c1.2-2,3.2-2.8,4.9-2.8c3.2,0,5.6,2.3,5.6,5.1c0,0.9-0.3,1.9-0.9,2.8l-18,27.6v21.3c0,3.1-2.1,5.2-5.2,5.2
			C492.4,231.1,490.3,228.9,490.3,225.8z"/>
	</g>
	<g>
		<g>
			<path class="st2" d="M153.9,160.8c-1.1-5.2-4.1-9.6-8.5-12.5s-9.7-3.9-14.9-2.8c-5.2,1.1-9.6,4.1-12.5,8.5
				c-2.1,3.2-3.2,7-3.2,10.9v19.4L82.9,198l0,0c-5.3,2.3-9.8,6.1-12.9,10.9c-2.2,3.4-3.7,7-4.4,11c-0.7,3.8-0.6,7.6,0.1,11.4
				c0.8,3.8,2.3,7.3,4.4,10.5c2.2,3.3,5,6.1,8.4,8.3c3.4,2.2,7,3.7,11,4.4c1.8,0.3,3.5,0.5,5.3,0.5c2,0,4.1-0.2,6.1-0.6
				c3.8-0.8,7.3-2.3,10.5-4.4c3.3-2.2,6.1-5,8.3-8.4c3.2-4.8,4.8-10.4,4.9-16.2v-34.6l17.8-7.7c3.6-1.5,6.6-4.1,8.7-7.3
				C154,171.3,155,166,153.9,160.8z M114.7,225.3c0,3.8-1.1,7.6-3.2,10.8c-2.9,4.4-7.4,7.5-12.5,8.5c-1.4,0.3-2.7,0.4-4.1,0.4
				c-3.8,0-7.6-1.1-10.8-3.3c-4.4-2.9-7.5-7.4-8.5-12.5c-1.1-5.2-0.1-10.5,2.8-14.9c2.1-3.2,5.1-5.7,8.6-7.3l27.8-12.1L114.7,225.3z
				 M142.8,170.3c-1.1,1.6-2.6,2.9-4.3,3.7l-13.9,6l0,0l0,0v-15.1c0-1.9,0.6-3.8,1.6-5.4l0,0c1.5-2.2,3.7-3.7,6.3-4.3
				c0.7-0.1,1.4-0.2,2-0.2c1.9,0,3.8,0.6,5.4,1.6C144.5,159.5,145.8,165.7,142.8,170.3z"/>
		</g>
	</g>
</g>
</svg>
